<svg width="16" height="22" viewBox="0 0 16 22" fill="none" xmlns="http://www.w3.org/2000/svg">
<path d="M15.1249 17H14.5624V9.03125C14.5624 5.72422 12.1179 2.99141 8.93744 2.53672V1.625C8.93744 1.10703 8.51791 0.6875 7.99994 0.6875C7.48197 0.6875 7.06244 1.10703 7.06244 1.625V2.53672C3.88197 2.99141 1.43744 5.72422 1.43744 9.03125V17H0.874939C0.460095 17 0.124939 17.3352 0.124939 17.75V18.5C0.124939 18.6031 0.209314 18.6875 0.312439 18.6875H5.37494C5.37494 20.1359 6.5515 21.3125 7.99994 21.3125C9.44838 21.3125 10.6249 20.1359 10.6249 18.6875H15.6874C15.7906 18.6875 15.8749 18.6031 15.8749 18.5V17.75C15.8749 17.3352 15.5398 17 15.1249 17ZM7.99994 19.8125C7.37885 19.8125 6.87494 19.3086 6.87494 18.6875H9.12494C9.12494 19.3086 8.62103 19.8125 7.99994 19.8125ZM3.12494 17V9.03125C3.12494 7.72813 3.63119 6.50469 4.55228 5.58359C5.47338 4.6625 6.69681 4.15625 7.99994 4.15625C9.30306 4.15625 10.5265 4.6625 11.4476 5.58359C12.3687 6.50469 12.8749 7.72813 12.8749 9.03125V17H3.12494Z" fill="white"/>
</svg>
