<svg width="22" height="22" viewBox="0 0 22 22" fill="none" xmlns="http://www.w3.org/2000/svg">
<path d="M10.9999 0.5C5.2015 0.5 0.499939 5.20156 0.499939 11C0.499939 16.7984 5.2015 21.5 10.9999 21.5C16.7984 21.5 21.4999 16.7984 21.4999 11C21.4999 5.20156 16.7984 0.5 10.9999 0.5ZM10.9999 19.7188C6.18588 19.7188 2.28119 15.8141 2.28119 11C2.28119 6.18594 6.18588 2.28125 10.9999 2.28125C15.814 2.28125 19.7187 6.18594 19.7187 11C19.7187 15.8141 15.814 19.7188 10.9999 19.7188Z" fill="#002766"/>
<path d="M9.87494 6.875C9.87494 7.17337 9.99347 7.45952 10.2044 7.6705C10.4154 7.88147 10.7016 8 10.9999 8C11.2983 8 11.5845 7.88147 11.7954 7.6705C12.0064 7.45952 12.1249 7.17337 12.1249 6.875C12.1249 6.57663 12.0064 6.29048 11.7954 6.0795C11.5845 5.86853 11.2983 5.75 10.9999 5.75C10.7016 5.75 10.4154 5.86853 10.2044 6.0795C9.99347 6.29048 9.87494 6.57663 9.87494 6.875ZM11.5624 9.5H10.4374C10.3343 9.5 10.2499 9.58437 10.2499 9.6875V16.0625C10.2499 16.1656 10.3343 16.25 10.4374 16.25H11.5624C11.6656 16.25 11.7499 16.1656 11.7499 16.0625V9.6875C11.7499 9.58437 11.6656 9.5 11.5624 9.5Z" fill="#002766"/>
</svg>
