<svg width="20" height="20" viewBox="0 0 20 20" fill="none" xmlns="http://www.w3.org/2000/svg">
<path d="M18.906 16.0937H17.031V14.2187C17.031 14.1156 16.9467 14.0312 16.8435 14.0312H15.7185C15.6154 14.0312 15.531 14.1156 15.531 14.2187V16.0937H13.656C13.5529 16.0937 13.4685 16.1781 13.4685 16.2812V17.4062C13.4685 17.5093 13.5529 17.5937 13.656 17.5937H15.531V19.4687C15.531 19.5718 15.6154 19.6562 15.7185 19.6562H16.8435C16.9467 19.6562 17.031 19.5718 17.031 19.4687V17.5937H18.906C19.0092 17.5937 19.0935 17.5093 19.0935 17.4062V16.2812C19.0935 16.1781 19.0092 16.0937 18.906 16.0937ZM6.7537 9.68122C6.7326 9.47731 6.72088 9.27106 6.72088 9.06247C6.72088 8.68981 6.75604 8.32653 6.82166 7.97263C6.83807 7.88825 6.79354 7.80153 6.7162 7.76638C6.39745 7.62341 6.10448 7.42653 5.85135 7.1781C5.55309 6.88889 5.31838 6.54069 5.16221 6.15571C5.00604 5.77073 4.93183 5.35742 4.94432 4.94216C4.96541 4.18981 5.26776 3.47497 5.7951 2.93591C6.37401 2.34294 7.15213 2.0195 7.97948 2.02888C8.72713 2.03591 9.44901 2.32419 9.9951 2.83513C10.1803 3.00856 10.3396 3.20075 10.4732 3.407C10.5201 3.47966 10.6115 3.51013 10.6912 3.482C11.1037 3.33903 11.5396 3.23825 11.9873 3.19138C12.1185 3.17731 12.1935 3.03669 12.1349 2.9195C11.3732 1.41247 9.81698 0.371845 8.01698 0.34372C5.4201 0.303876 3.25448 2.43435 3.25448 5.03122C3.25448 6.5031 3.93182 7.8156 4.99354 8.67575C4.24823 9.02028 3.56151 9.49606 2.9662 10.0914C1.68182 11.3734 0.955259 13.0656 0.908384 14.8726C0.907758 14.8976 0.912146 14.9225 0.921288 14.9458C0.930431 14.9691 0.944143 14.9903 0.961616 15.0082C0.97909 15.0262 0.999972 15.0404 1.02303 15.0501C1.04609 15.0598 1.07086 15.0648 1.09588 15.0648H2.41073C2.51151 15.0648 2.59588 14.9851 2.59823 14.8843C2.64276 13.525 3.19354 12.2523 4.16151 11.2867C4.85057 10.5976 5.69432 10.1195 6.61542 9.88747C6.70448 9.86169 6.76542 9.77497 6.7537 9.68122ZM17.3123 9.06247C17.3123 6.49841 15.2521 4.41481 12.6974 4.37497C10.1006 4.33513 7.93729 6.4656 7.93729 9.06247C7.93729 10.5343 8.61698 11.8468 9.67635 12.707C8.92332 13.0561 8.23781 13.5353 7.65135 14.1226C6.36698 15.4047 5.64042 17.0968 5.59354 18.9015C5.59291 18.9265 5.5973 18.9514 5.60644 18.9747C5.61559 18.998 5.6293 19.0192 5.64677 19.0372C5.66425 19.0551 5.68513 19.0693 5.70819 19.079C5.73125 19.0887 5.75602 19.0937 5.78104 19.0937H7.09354C7.19432 19.0937 7.2787 19.014 7.28104 18.9132C7.32557 17.5539 7.87635 16.2812 8.84432 15.3156C9.85448 14.3054 11.1951 13.75 12.6248 13.75C15.2123 13.75 17.3123 11.6523 17.3123 9.06247ZM14.7459 11.1836C14.1787 11.7508 13.4264 12.0625 12.6248 12.0625C11.8232 12.0625 11.0709 11.7508 10.5037 11.1836C10.2207 10.902 9.99703 10.5665 9.84605 10.1969C9.69508 9.82733 9.61984 9.4312 9.62479 9.032C9.63182 8.26325 9.93885 7.52028 10.4756 6.9695C11.0381 6.39294 11.7904 6.07185 12.5943 6.06247C13.3889 6.05544 14.1599 6.36481 14.7271 6.92028C15.3084 7.48981 15.6271 8.25153 15.6271 9.06247C15.6248 9.86403 15.3131 10.6164 14.7459 11.1836Z" fill="#002766"/>
</svg>
